<?xml version="1.0" encoding="UTF-8"?>
<!-- Generated by Pixelmator Pro 3.5.7 -->
<svg width="144" height="38" viewBox="0 0 144 38" xmlns="http://www.w3.org/2000/svg">
    <linearGradient id="linearGradient1" x1="15.653108" y1="34.987254" x2="15.653108" y2="3.982838" gradientUnits="userSpaceOnUse">
        <stop offset="0" stop-color="#1c70f2" stop-opacity="1"/>
        <stop offset="1" stop-color="#1ac9fb" stop-opacity="1"/>
    </linearGradient>
    <path id="Path" fill="url(#linearGradient1)" fill-rule="evenodd" stroke="none" d="M 0 17.7778 C 0 11.2829 0 8.035419 2.0177 6.0177 C 4.03542 4 7.28286 4 13.7778 4 L 17.2222 4 C 23.7171 4 26.964701 4 28.982201 6.0177 C 31 8.035419 31 11.2829 31 17.7778 L 31 21.2222 C 31 27.7171 31 30.964701 28.982201 32.982201 C 26.964701 35 23.7171 35 17.2222 35 L 13.7778 35 C 7.28286 35 4.03542 35 2.0177 32.982201 C 0 30.964701 0 27.7171 0 21.2222 L 0 17.7778 Z M 25.8333 11.75 C 25.8333 13.176701 24.676701 14.3333 23.25 14.3333 C 21.823299 14.3333 20.6667 13.176701 20.6667 11.75 C 20.6667 10.323299 21.823299 9.16667 23.25 9.16667 C 24.676701 9.16667 25.8333 10.323299 25.8333 11.75 Z M 18.944401 21.2222 C 18.944401 23.124599 17.402399 24.6667 15.5 24.6667 C 13.5976 24.6667 12.0556 23.124599 12.0556 21.2222 C 12.0556 19.319901 13.5976 17.7778 15.5 17.7778 C 17.402399 17.7778 18.944401 19.319901 18.944401 21.2222 Z M 22.388901 21.2222 C 22.388901 25.0268 19.3046 28.111099 15.5 28.111099 C 11.6954 28.111099 8.61111 25.0268 8.61111 21.2222 C 8.61111 17.4177 11.6954 14.3333 15.5 14.3333 C 19.3046 14.3333 22.388901 17.4177 22.388901 21.2222 Z"/>
    <text id="AImage" xml:space="preserve" x="35" y="31" font-family="BR Candor" font-size="27" font-weight="600" fill="#000000">AImage</text>
</svg>
